# xmcd CD database file
# Copyright (C) 1993-1998 Ti Kan
#
# Track frame offsets:
# 150
# 9480
# 22520
# 37577
# 49032
# 65100
# 81700
# 100775
# 116007
# 132600
# 150887
#
# Disc length: 2247 seconds
# Revision: 0
# Processed by: cddbd v1.4b41PL1 Copyright (c) Steve Scherf et al.
# Submitted via: CDSpectrumPro v3.2.328
#
DISCID=7f08c50b
DTITLE=Ponder, Harp, and Jennings - Only Jesus
DYEAR=1900
DGENRE=
TTITLE0=Set My Spirit Free
TTITLE1=Fully Alive
TTITLE2=Satisfied - Only Jesus
TTITLE3=Sweeter as the Days Go By
TTITLE4=Into His Presence
TTITLE5=Finally Home - When We See Christ
TTITLE6=Tell Me
TTITLE7=Where Would I Be?
TTITLE8=You're the Only Jesus
TTITLE9=Go Ask
TTITLE10=Touch Your People Once Again
EXTD=
EXTT0=
EXTT1=
EXTT2=
EXTT3=
EXTT4=
EXTT5=
EXTT6=
EXTT7=
EXTT8=
EXTT9=
EXTT10=
PLAYORDER=
